# xmcd
#
# Track frame offsets:
#	150
#	15077
#	34279
#	52281
#	67808
#	89110
#	105987
#	122564
#	135616
#	150318
#	163745
#	182497
#	207774
#
# Disc length: 2966 seconds
#
# Revision: 1
# Processed by: cddbd v1.5.2PL0 Copyright (c) Steve Scherf et al.
# Submitted via: audiograbber 1.83.01
#
DISCID=a20b940d
DTITLE=The Steel Woods - Straw In The Wind
DYEAR=1900
DGENRE=
TTITLE0=Axe
TTITLE1=Better In The Fall
TTITLE2=The Well
TTITLE3=Della Jane's Heart
TTITLE4=Straw In The Wind
TTITLE5=Uncle Lloyd
TTITLE6=The Secret
TTITLE7=I'm Gonna Love You
TTITLE8=If We Never Go
TTITLE9=Wild and Blue
TTITLE10=Whatever It Means To You
TTITLE11=Hole In The Sky
TTITLE12=Let The Rain Come Down
EXTD=
EXTT0=
EXTT1=
EXTT2=
EXTT3=
EXTT4=
EXTT5=
EXTT6=
EXTT7=
EXTT8=
EXTT9=
EXTT10=
EXTT11=
EXTT12=
PLAYORDER=
